<svg xmlns="http://www.w3.org/2000/svg" width="387" height="179.57" viewBox="0 0 387 179.57">
  <path id="Union_1" data-name="Union 1" d="M365.512,172.823a6.744,6.744,0,1,1,6.745,6.747A6.745,6.745,0,0,1,365.512,172.823Zm-41.5,0a6.744,6.744,0,1,1,6.744,6.747A6.745,6.745,0,0,1,324.011,172.823Zm-41.5,0a6.744,6.744,0,1,1,6.745,6.747A6.745,6.745,0,0,1,282.509,172.823Zm-41.5,0a6.744,6.744,0,1,1,6.744,6.747A6.745,6.745,0,0,1,241.008,172.823Zm-41.5,0a6.744,6.744,0,1,1,6.744,6.747A6.745,6.745,0,0,1,199.507,172.823Zm-41.5,0a6.744,6.744,0,1,1,6.745,6.747A6.745,6.745,0,0,1,158,172.823Zm-41.5,0a6.744,6.744,0,1,1,6.744,6.747A6.745,6.745,0,0,1,116.5,172.823Zm-41.5,0a6.744,6.744,0,1,1,6.745,6.747A6.745,6.745,0,0,1,75,172.823Zm-41.5,0a6.744,6.744,0,1,1,6.744,6.747A6.745,6.745,0,0,1,33.5,172.823Zm-41.5,0a6.745,6.745,0,0,1,6.744-6.746,6.745,6.745,0,0,1,6.745,6.746,6.746,6.746,0,0,1-6.745,6.747A6.745,6.745,0,0,1-8,172.823Zm373.512-33.215a6.744,6.744,0,1,1,6.745,6.746A6.746,6.746,0,0,1,365.512,139.608Zm-41.5,0a6.744,6.744,0,1,1,6.744,6.746A6.745,6.745,0,0,1,324.011,139.608Zm-41.5,0a6.744,6.744,0,1,1,6.745,6.746A6.746,6.746,0,0,1,282.509,139.608Zm-41.5,0a6.744,6.744,0,1,1,6.744,6.746A6.745,6.745,0,0,1,241.008,139.608Zm-41.5,0a6.744,6.744,0,1,1,6.744,6.746A6.745,6.745,0,0,1,199.507,139.608Zm-41.5,0a6.744,6.744,0,1,1,6.745,6.746A6.746,6.746,0,0,1,158,139.608Zm-41.5,0a6.744,6.744,0,1,1,6.744,6.746A6.745,6.745,0,0,1,116.5,139.608Zm-41.5,0a6.744,6.744,0,1,1,6.745,6.746A6.746,6.746,0,0,1,75,139.608Zm-41.5,0a6.744,6.744,0,1,1,6.744,6.746A6.745,6.745,0,0,1,33.5,139.608Zm-41.5,0a6.745,6.745,0,0,1,6.744-6.747,6.746,6.746,0,0,1,6.745,6.747,6.745,6.745,0,0,1-6.745,6.746A6.745,6.745,0,0,1-8,139.608Zm373.512-33.215a6.744,6.744,0,1,1,6.745,6.746A6.746,6.746,0,0,1,365.512,106.393Zm-41.5,0a6.744,6.744,0,1,1,6.744,6.746A6.746,6.746,0,0,1,324.011,106.393Zm-41.5,0a6.744,6.744,0,1,1,6.745,6.746A6.746,6.746,0,0,1,282.509,106.393Zm-41.5,0a6.744,6.744,0,1,1,6.744,6.746A6.746,6.746,0,0,1,241.008,106.393Zm-41.5,0a6.744,6.744,0,1,1,6.744,6.746A6.746,6.746,0,0,1,199.507,106.393Zm-41.5,0a6.744,6.744,0,1,1,6.745,6.746A6.746,6.746,0,0,1,158,106.393Zm-41.5,0a6.744,6.744,0,1,1,6.744,6.746A6.746,6.746,0,0,1,116.5,106.393Zm-41.5,0a6.744,6.744,0,1,1,6.745,6.746A6.746,6.746,0,0,1,75,106.393Zm-41.5,0a6.744,6.744,0,1,1,6.744,6.746A6.746,6.746,0,0,1,33.5,106.393Zm-41.5,0a6.746,6.746,0,0,1,6.744-6.747,6.746,6.746,0,0,1,6.745,6.747,6.745,6.745,0,0,1-6.745,6.746A6.745,6.745,0,0,1-8,106.393ZM365.512,73.177a6.744,6.744,0,1,1,6.745,6.747A6.745,6.745,0,0,1,365.512,73.177Zm-41.5,0a6.744,6.744,0,1,1,6.744,6.747A6.745,6.745,0,0,1,324.011,73.177Zm-41.5,0a6.744,6.744,0,1,1,6.745,6.747A6.745,6.745,0,0,1,282.509,73.177Zm-41.5,0a6.744,6.744,0,1,1,6.744,6.747A6.745,6.745,0,0,1,241.008,73.177Zm-41.5,0a6.744,6.744,0,1,1,6.744,6.747A6.745,6.745,0,0,1,199.507,73.177Zm-41.5,0a6.744,6.744,0,1,1,6.745,6.747A6.745,6.745,0,0,1,158,73.177Zm-41.5,0a6.744,6.744,0,1,1,6.744,6.747A6.745,6.745,0,0,1,116.5,73.177Zm-41.5,0a6.744,6.744,0,1,1,6.745,6.747A6.745,6.745,0,0,1,75,73.177Zm-41.5,0a6.744,6.744,0,1,1,6.744,6.747A6.745,6.745,0,0,1,33.5,73.177Zm-41.5,0a6.745,6.745,0,0,1,6.744-6.746,6.745,6.745,0,0,1,6.745,6.746,6.746,6.746,0,0,1-6.745,6.747A6.746,6.746,0,0,1-8,73.177ZM365.512,39.962a6.744,6.744,0,1,1,6.745,6.747A6.745,6.745,0,0,1,365.512,39.962Zm-41.5,0a6.744,6.744,0,1,1,6.744,6.747A6.745,6.745,0,0,1,324.011,39.962Zm-41.5,0a6.744,6.744,0,1,1,6.745,6.747A6.745,6.745,0,0,1,282.509,39.962Zm-41.5,0a6.744,6.744,0,1,1,6.744,6.747A6.745,6.745,0,0,1,241.008,39.962Zm-41.5,0a6.744,6.744,0,1,1,6.744,6.747A6.745,6.745,0,0,1,199.507,39.962Zm-41.5,0a6.744,6.744,0,1,1,6.745,6.747A6.745,6.745,0,0,1,158,39.962Zm-41.5,0a6.744,6.744,0,1,1,6.744,6.747A6.745,6.745,0,0,1,116.5,39.962Zm-41.5,0a6.744,6.744,0,1,1,6.745,6.747A6.745,6.745,0,0,1,75,39.962Zm-41.5,0a6.744,6.744,0,1,1,6.744,6.747A6.745,6.745,0,0,1,33.5,39.962Zm-41.5,0a6.745,6.745,0,0,1,6.744-6.746,6.745,6.745,0,0,1,6.745,6.746,6.746,6.746,0,0,1-6.745,6.747A6.746,6.746,0,0,1-8,39.962ZM365.512,6.746a6.744,6.744,0,1,1,6.745,6.747A6.745,6.745,0,0,1,365.512,6.746Zm-41.5,0a6.744,6.744,0,1,1,6.744,6.747A6.745,6.745,0,0,1,324.011,6.746Zm-41.5,0a6.744,6.744,0,1,1,6.745,6.747A6.745,6.745,0,0,1,282.509,6.746Zm-41.5,0a6.744,6.744,0,1,1,6.744,6.747A6.745,6.745,0,0,1,241.008,6.746Zm-41.5,0a6.744,6.744,0,1,1,6.744,6.747A6.745,6.745,0,0,1,199.507,6.746Zm-41.5,0a6.744,6.744,0,1,1,6.745,6.747A6.745,6.745,0,0,1,158,6.746Zm-41.5,0a6.744,6.744,0,1,1,6.744,6.747A6.745,6.745,0,0,1,116.5,6.746Zm-41.5,0a6.744,6.744,0,1,1,6.745,6.747A6.745,6.745,0,0,1,75,6.746Zm-41.5,0a6.744,6.744,0,1,1,6.744,6.747A6.745,6.745,0,0,1,33.5,6.746Zm-41.5,0A6.745,6.745,0,0,1-1.256,0,6.745,6.745,0,0,1,5.488,6.746a6.746,6.746,0,0,1-6.745,6.747A6.745,6.745,0,0,1-8,6.746Z" transform="translate(8)" fill="#fff" opacity="0.16"/>
</svg>
